<?xml version="1.0" encoding="utf-8"?>
<!-- Generator: Adobe Illustrator 25.0.0, SVG Export Plug-In . SVG Version: 6.00 Build 0)  -->
<svg version="1.1" id="Layer_2" xmlns="http://www.w3.org/2000/svg" xmlns:xlink="http://www.w3.org/1999/xlink" x="0px" y="0px"
	 viewBox="0 0 1008 1080" style="enable-background:new 0 0 1008 1080;" xml:space="preserve">
<style type="text/css">
	.st0{enable-background:new    ;}
	.st1{fill:#A11318;}
	.st2{fill:#790E12;}
	.st3{fill:#D91A21;}
</style>
<g>
	<g class="st0">
		<g>
			<polygon class="st1" points="603.1,150.2 603.1,254 574.1,272.5 574.1,168.7 			"/>
		</g>
		<g>
			<polygon class="st2" points="702.1,213.4 702.1,317.1 603.1,254 603.1,150.2 			"/>
		</g>
		<g>
			<polygon class="st1" points="574.1,168.7 574.1,272.5 434,361.8 434,258 			"/>
		</g>
		<g>
			<polygon class="st1" points="434,258 434,361.8 410.4,376.8 410.4,273.1 			"/>
		</g>
		<g>
			<polygon class="st1" points="410.4,273.1 410.4,376.8 405,380.3 405,276.5 			"/>
		</g>
		<g>
			<polygon class="st1" points="405,276.5 405,380.3 306,443.4 306,339.7 			"/>
		</g>
		<g>
			<polygon class="st1" points="306,339.7 306,443.4 293.9,451.1 293.9,347.3 			"/>
		</g>
		<g>
			<polygon class="st1" points="293.9,347.3 293.9,451.1 270.4,466.1 270.4,362.4 			"/>
		</g>
		<g>
			<polygon class="st1" points="270.4,362.4 270.4,466.1 207,506.6 207,402.8 			"/>
		</g>
		<g>
			<polygon class="st1" points="603,402.8 603,506.5 574.1,525 574.1,421.3 			"/>
		</g>
		<g>
			<polygon class="st1" points="207,402.8 207,506.6 153.9,540.4 153.9,436.6 			"/>
		</g>
		<g>
			<polygon class="st2" points="679.7,451.7 679.7,555.4 603,506.5 603,402.8 			"/>
		</g>
		<g>
			<polygon class="st2" points="85.5,451.7 85.5,555.4 13.8,509.7 13.8,405.9 			"/>
		</g>
		<g>
			<polygon class="st1" points="153.9,436.6 153.9,540.4 107.9,569.7 107.9,465.9 			"/>
		</g>
		<g>
			<polygon class="st2" points="107.9,465.9 107.9,569.7 85.5,555.4 85.5,451.7 			"/>
		</g>
		<g>
			<polygon class="st1" points="574.1,421.3 574.1,525 386.4,644.7 386.4,541 			"/>
		</g>
		<g>
			<polygon class="st1" points="386.4,541 386.4,644.7 305.9,695.9 305.9,592.2 			"/>
		</g>
		<g>
			<polygon class="st1" points="305.9,592.2 305.9,695.9 293.9,703.6 293.9,599.9 			"/>
		</g>
		<g>
			<polygon class="st1" points="293.9,599.9 293.9,703.6 246.2,734 246.2,630.3 			"/>
		</g>
		<g>
			<polygon class="st2" points="994.2,652.2 994.2,755.9 679.7,555.4 679.7,451.7 			"/>
		</g>
		<g>
			<polygon class="st1" points="246.2,630.3 246.2,734 153.9,792.9 153.9,689.2 			"/>
		</g>
		<g>
			<polygon class="st1" points="153.9,689.2 153.9,792.9 107.9,822.2 107.9,718.5 			"/>
		</g>
		<g>
			<polygon class="st2" points="107.9,718.5 107.9,822.2 13.8,762.2 13.8,658.5 			"/>
		</g>
		<g>
			<polygon class="st3" points="573.6,5.2 603,23.9 702.1,87.1 900.2,213.4 993.8,273.1 994.2,652.2 679.7,451.7 603,402.8 
				574.1,421.3 386.4,541 305.9,592.2 293.9,599.9 246.2,630.3 153.9,689.2 107.9,718.5 13.8,658.5 13.8,652.2 48.2,630.3 
				107.9,592.2 153.9,562.9 188.3,541 207,529.1 293.9,473.6 468.4,362.4 504,339.7 574.1,295 603.1,276.5 608.4,273.1 702.1,213.4 
				603.1,150.2 574.1,168.7 434,258 410.4,273.1 405,276.5 306,339.7 293.9,347.3 270.4,362.4 207,402.8 153.9,436.6 107.9,465.9 
				85.5,451.7 13.8,405.9 13.8,273.3 107.9,213.4 153.9,184 434.4,5.2 			"/>
		</g>
		<g>
			<polygon class="st1" points="900.2,718.5 900.2,822.2 898.5,823.3 898.5,719.6 			"/>
		</g>
		<g>
			<polygon class="st1" points="898.5,719.6 898.5,823.3 854.1,851.6 854.1,747.9 			"/>
		</g>
		<g>
			<polygon class="st1" points="854.1,747.9 854.1,851.6 758.4,912.6 758.4,808.9 			"/>
		</g>
		<g>
			<polygon class="st2" points="249.6,808.9 249.6,912.6 207,885.4 207,781.7 			"/>
		</g>
		<g>
			<polygon class="st2" points="293.9,837.1 293.9,940.9 249.6,912.6 249.6,808.9 			"/>
		</g>
		<g>
			<polygon class="st1" points="758.4,808.9 758.4,912.6 714.1,940.9 714.1,837.2 			"/>
		</g>
		<g>
			<polygon class="st2" points="306,844.8 306,948.5 293.9,940.9 293.9,837.1 			"/>
		</g>
		<g>
			<polygon class="st1" points="714.1,837.2 714.1,940.9 702.1,948.5 702.1,844.8 			"/>
		</g>
		<g>
			<polygon class="st1" points="702.1,844.8 702.1,948.5 618.4,1001.9 618.4,898.1 			"/>
		</g>
		<g>
			<polygon class="st2" points="389.6,898.1 389.6,1001.9 306,948.5 306,844.8 			"/>
		</g>
		<g>
			<polygon class="st2" points="405,907.9 405,1011.7 389.6,1001.9 389.6,898.1 			"/>
		</g>
		<g>
			<polygon class="st1" points="618.4,898.1 618.4,1001.9 603.1,1011.7 603.1,908 			"/>
		</g>
		<g>
			<polygon class="st1" points="603.1,908 603.1,1011.7 574.1,1030.2 574.1,926.4 			"/>
		</g>
		<g>
			<polygon class="st1" points="574.1,926.4 574.1,1030.2 504,1074.8 504,971.1 			"/>
		</g>
		<g>
			<polygon class="st3" points="603.1,529.1 900.2,718.5 898.5,719.6 854.1,747.9 758.4,808.9 714.1,837.2 702.1,844.8 618.4,898.1 
				603.1,908 574.1,926.4 504,971.1 405,907.9 389.6,898.1 306,844.8 293.9,837.1 249.6,808.9 207,781.7 293.9,726.2 304.3,719.6 
				305.9,718.5 444.3,630.3 504,592.2 574.1,547.6 584.4,541 			"/>
		</g>
		<g>
			<polygon class="st2" points="504,971.1 504,1074.8 405,1011.7 405,907.9 			"/>
		</g>
	</g>
</g>
</svg>
